<?xml version="1.0" encoding="UTF-8" standalone="no"?>
<!DOCTYPE svg PUBLIC "-//W3C//DTD SVG 1.1//EN"
 "http://www.w3.org/Graphics/SVG/1.1/DTD/svg11.dtd">
<!-- Generated by graphviz version 2.38.0 (20140413.2041)
 -->
<!-- Title: Ui_MediaInfo Pages: 1 -->
<svg width="124pt" height="152pt"
 viewBox="0.00 0.00 124.00 152.00" xmlns="http://www.w3.org/2000/svg" xmlns:xlink="http://www.w3.org/1999/xlink">
<g id="graph0" class="graph" transform="scale(1 1) rotate(0) translate(4 148)">
<title>Ui_MediaInfo</title>
<polygon fill="white" stroke="none" points="-4,4 -4,-148 120,-148 120,4 -4,4"/>
<!-- Node1 -->
<g id="node1" class="node"><title>Node1</title>
<polygon fill="#bfbfbf" stroke="black" points="0,-0.5 0,-19.5 74,-19.5 74,-0.5 0,-0.5"/>
<text text-anchor="middle" x="37" y="-7.5" font-family="Helvetica,sans-Serif" font-size="10.00">Ui_MediaInfo</text>
</g>
<!-- Node2 -->
<g id="node2" class="node"><title>Node2</title>
<g id="a_node2"><a xlink:href="class_light_cycle.html" target="_top" xlink:title="LightCycle">
<polygon fill="white" stroke="black" points="5.5,-67.5 5.5,-86.5 68.5,-86.5 68.5,-67.5 5.5,-67.5"/>
<text text-anchor="middle" x="37" y="-74.5" font-family="Helvetica,sans-Serif" font-size="10.00">LightCycle</text>
</a>
</g>
</g>
<!-- Node2&#45;&gt;Node1 -->
<g id="edge1" class="edge"><title>Node2&#45;&gt;Node1</title>
<path fill="none" stroke="#9a32cd" stroke-dasharray="5,2" d="M37,-57.037C37,-44.6703 37,-29.1198 37,-19.6273"/>
<polygon fill="#9a32cd" stroke="#9a32cd" points="33.5001,-57.2338 37,-67.2338 40.5001,-57.2338 33.5001,-57.2338"/>
<text text-anchor="middle" x="76.5" y="-41" font-family="Helvetica,sans-Serif" font-size="10.00"> widgetLightCycle</text>
</g>
<!-- Node3 -->
<g id="node3" class="node"><title>Node3</title>
<polygon fill="white" stroke="#bfbfbf" points="9.5,-124.5 9.5,-143.5 64.5,-143.5 64.5,-124.5 9.5,-124.5"/>
<text text-anchor="middle" x="37" y="-131.5" font-family="Helvetica,sans-Serif" font-size="10.00">QWidget</text>
</g>
<!-- Node3&#45;&gt;Node2 -->
<g id="edge2" class="edge"><title>Node3&#45;&gt;Node2</title>
<path fill="none" stroke="midnightblue" d="M37,-114.117C37,-104.817 37,-94.0557 37,-86.7149"/>
<polygon fill="midnightblue" stroke="midnightblue" points="33.5001,-114.406 37,-124.406 40.5001,-114.406 33.5001,-114.406"/>
</g>
</g>
</svg>
