<?xml version="1.0" encoding="UTF-8" standalone="no"?>
<!DOCTYPE svg PUBLIC "-//W3C//DTD SVG 1.1//EN"
 "http://www.w3.org/Graphics/SVG/1.1/DTD/svg11.dtd">
<!-- Generated by graphviz version 2.38.0 (20140413.2041)
 -->
<!-- Title: AbstractMediaInfo Pages: 1 -->
<svg width="104pt" height="140pt"
 viewBox="0.00 0.00 104.00 140.00" xmlns="http://www.w3.org/2000/svg" xmlns:xlink="http://www.w3.org/1999/xlink">
<g id="graph0" class="graph" transform="scale(1 1) rotate(0) translate(4 136)">
<title>AbstractMediaInfo</title>
<polygon fill="white" stroke="none" points="-4,4 -4,-136 100,-136 100,4 -4,4"/>
<!-- Node1 -->
<g id="node1" class="node"><title>Node1</title>
<polygon fill="#bfbfbf" stroke="black" points="0,-56.5 0,-75.5 96,-75.5 96,-56.5 0,-56.5"/>
<text text-anchor="middle" x="48" y="-63.5" font-family="Helvetica,sans-Serif" font-size="10.00">AbstractMediaInfo</text>
</g>
<!-- Node3 -->
<g id="node3" class="node"><title>Node3</title>
<g id="a_node3"><a xlink:href="class_media_info.html" target="_top" xlink:title="The MediaInfo class is supposed to be able to display information about the current media that is bee...">
<polygon fill="white" stroke="black" points="18.5,-0.5 18.5,-19.5 77.5,-19.5 77.5,-0.5 18.5,-0.5"/>
<text text-anchor="middle" x="48" y="-7.5" font-family="Helvetica,sans-Serif" font-size="10.00">MediaInfo</text>
</a>
</g>
</g>
<!-- Node1&#45;&gt;Node3 -->
<g id="edge2" class="edge"><title>Node1&#45;&gt;Node3</title>
<path fill="none" stroke="midnightblue" d="M48,-45.8045C48,-36.9102 48,-26.7798 48,-19.7511"/>
<polygon fill="midnightblue" stroke="midnightblue" points="44.5001,-46.083 48,-56.083 51.5001,-46.083 44.5001,-46.083"/>
</g>
<!-- Node2 -->
<g id="node2" class="node"><title>Node2</title>
<polygon fill="white" stroke="#bfbfbf" points="20.5,-112.5 20.5,-131.5 75.5,-131.5 75.5,-112.5 20.5,-112.5"/>
<text text-anchor="middle" x="48" y="-119.5" font-family="Helvetica,sans-Serif" font-size="10.00">QWidget</text>
</g>
<!-- Node2&#45;&gt;Node1 -->
<g id="edge1" class="edge"><title>Node2&#45;&gt;Node1</title>
<path fill="none" stroke="midnightblue" d="M48,-101.805C48,-92.9102 48,-82.7798 48,-75.7511"/>
<polygon fill="midnightblue" stroke="midnightblue" points="44.5001,-102.083 48,-112.083 51.5001,-102.083 44.5001,-102.083"/>
</g>
</g>
</svg>
