<?xml version="1.0" encoding="UTF-8" standalone="no"?>
<!DOCTYPE svg PUBLIC "-//W3C//DTD SVG 1.1//EN"
 "http://www.w3.org/Graphics/SVG/1.1/DTD/svg11.dtd">
<!-- Generated by graphviz version 2.38.0 (20140413.2041)
 -->
<!-- Title: Ui::MainWindow Pages: 1 -->
<svg width="375pt" height="285pt"
 viewBox="0.00 0.00 375.00 285.00" xmlns="http://www.w3.org/2000/svg" xmlns:xlink="http://www.w3.org/1999/xlink">
<g id="graph0" class="graph" transform="scale(1 1) rotate(0) translate(4 281)">
<title>Ui::MainWindow</title>
<polygon fill="white" stroke="none" points="-4,4 -4,-281 371,-281 371,4 -4,4"/>
<!-- Node1 -->
<g id="node1" class="node"><title>Node1</title>
<polygon fill="#bfbfbf" stroke="black" points="169,-0.5 169,-19.5 258,-19.5 258,-0.5 169,-0.5"/>
<text text-anchor="middle" x="213.5" y="-7.5" font-family="Helvetica,sans-Serif" font-size="10.00">Ui::MainWindow</text>
</g>
<!-- Node2 -->
<g id="node2" class="node"><title>Node2</title>
<g id="a_node2"><a xlink:href="class_ui___main_window.html" target="_top" xlink:title="Ui_MainWindow">
<polygon fill="white" stroke="black" points="169.5,-57.5 169.5,-76.5 257.5,-76.5 257.5,-57.5 169.5,-57.5"/>
<text text-anchor="middle" x="213.5" y="-64.5" font-family="Helvetica,sans-Serif" font-size="10.00">Ui_MainWindow</text>
</a>
</g>
</g>
<!-- Node2&#45;&gt;Node1 -->
<g id="edge1" class="edge"><title>Node2&#45;&gt;Node1</title>
<path fill="none" stroke="midnightblue" d="M213.5,-47.1166C213.5,-37.8173 213.5,-27.0557 213.5,-19.7149"/>
<polygon fill="midnightblue" stroke="midnightblue" points="210,-47.4062 213.5,-57.4062 217,-47.4063 210,-47.4062"/>
</g>
<!-- Node3 -->
<g id="node3" class="node"><title>Node3</title>
<g id="a_node3"><a xlink:href="class_spectrograph.html" target="_top" xlink:title="The Spectrograph class is used to draw the fourier spectrum on the screen. ">
<polygon fill="white" stroke="black" points="39.5,-124.5 39.5,-143.5 113.5,-143.5 113.5,-124.5 39.5,-124.5"/>
<text text-anchor="middle" x="76.5" y="-131.5" font-family="Helvetica,sans-Serif" font-size="10.00">Spectrograph</text>
</a>
</g>
</g>
<!-- Node3&#45;&gt;Node2 -->
<g id="edge2" class="edge"><title>Node3&#45;&gt;Node2</title>
<path fill="none" stroke="#9a32cd" stroke-dasharray="5,2" d="M95.1409,-118.444C105.673,-110.719 119.333,-101.507 132.5,-95 147.915,-87.3822 165.992,-81.1243 181.152,-76.558"/>
<polygon fill="#9a32cd" stroke="#9a32cd" points="92.993,-115.68 87.1088,-124.49 97.2031,-121.272 92.993,-115.68"/>
<text text-anchor="middle" x="155" y="-98" font-family="Helvetica,sans-Serif" font-size="10.00"> visualizer</text>
</g>
<!-- Node4 -->
<g id="node4" class="node"><title>Node4</title>
<g id="a_node4"><a xlink:href="class_abstract_spectrograph.html" target="_top" xlink:title="The AbstractSpectrograph class provides a generic interface for a spectrograph drawing widget...">
<polygon fill="white" stroke="black" points="0,-200.5 0,-219.5 111,-219.5 111,-200.5 0,-200.5"/>
<text text-anchor="middle" x="55.5" y="-207.5" font-family="Helvetica,sans-Serif" font-size="10.00">AbstractSpectrograph</text>
</a>
</g>
</g>
<!-- Node4&#45;&gt;Node3 -->
<g id="edge3" class="edge"><title>Node4&#45;&gt;Node3</title>
<path fill="none" stroke="midnightblue" d="M60.7475,-190.509C64.9856,-175.575 70.7612,-155.222 74.0118,-143.768"/>
<polygon fill="midnightblue" stroke="midnightblue" points="57.3545,-189.645 57.9914,-200.221 64.0886,-191.556 57.3545,-189.645"/>
</g>
<!-- Node5 -->
<g id="node5" class="node"><title>Node5</title>
<polygon fill="white" stroke="#bfbfbf" points="200,-257.5 200,-276.5 255,-276.5 255,-257.5 200,-257.5"/>
<text text-anchor="middle" x="227.5" y="-264.5" font-family="Helvetica,sans-Serif" font-size="10.00">QWidget</text>
</g>
<!-- Node5&#45;&gt;Node4 -->
<g id="edge4" class="edge"><title>Node5&#45;&gt;Node4</title>
<path fill="none" stroke="midnightblue" d="M191.003,-254.33C158.397,-243.903 111.394,-228.873 82.1863,-219.533"/>
<polygon fill="midnightblue" stroke="midnightblue" points="190.034,-257.694 200.625,-257.406 192.166,-251.027 190.034,-257.694"/>
</g>
<!-- Node7 -->
<g id="node7" class="node"><title>Node7</title>
<g id="a_node7"><a xlink:href="class_abstract_media_info.html" target="_top" xlink:title="AbstractMediaInfo">
<polygon fill="white" stroke="black" points="129.5,-200.5 129.5,-219.5 225.5,-219.5 225.5,-200.5 129.5,-200.5"/>
<text text-anchor="middle" x="177.5" y="-207.5" font-family="Helvetica,sans-Serif" font-size="10.00">AbstractMediaInfo</text>
</a>
</g>
</g>
<!-- Node5&#45;&gt;Node7 -->
<g id="edge7" class="edge"><title>Node5&#45;&gt;Node7</title>
<path fill="none" stroke="midnightblue" d="M212.798,-249.828C203.845,-239.979 192.756,-227.782 185.423,-219.715"/>
<polygon fill="midnightblue" stroke="midnightblue" points="210.371,-252.361 219.688,-257.406 215.551,-247.652 210.371,-252.361"/>
</g>
<!-- Node8 -->
<g id="node8" class="node"><title>Node8</title>
<g id="a_node8"><a xlink:href="class_media_library.html" target="_top" xlink:title="MediaLibrary">
<polygon fill="white" stroke="black" points="214.5,-162.5 214.5,-181.5 286.5,-181.5 286.5,-162.5 214.5,-162.5"/>
<text text-anchor="middle" x="250.5" y="-169.5" font-family="Helvetica,sans-Serif" font-size="10.00">MediaLibrary</text>
</a>
</g>
</g>
<!-- Node5&#45;&gt;Node8 -->
<g id="edge9" class="edge"><title>Node5&#45;&gt;Node8</title>
<path fill="none" stroke="midnightblue" d="M232.045,-247.622C236.992,-227.618 244.689,-196.495 248.383,-181.562"/>
<polygon fill="midnightblue" stroke="midnightblue" points="228.626,-246.87 229.623,-257.417 235.421,-248.55 228.626,-246.87"/>
</g>
<!-- Node10 -->
<g id="node10" class="node"><title>Node10</title>
<g id="a_node10"><a xlink:href="class_abstract_control.html" target="_top" xlink:title="AbstractControl">
<polygon fill="white" stroke="black" points="282,-200.5 282,-219.5 367,-219.5 367,-200.5 282,-200.5"/>
<text text-anchor="middle" x="324.5" y="-207.5" font-family="Helvetica,sans-Serif" font-size="10.00">AbstractControl</text>
</a>
</g>
</g>
<!-- Node5&#45;&gt;Node10 -->
<g id="edge12" class="edge"><title>Node5&#45;&gt;Node10</title>
<path fill="none" stroke="midnightblue" d="M251.496,-252.394C269.634,-242.11 293.973,-228.309 309.45,-219.533"/>
<polygon fill="midnightblue" stroke="midnightblue" points="249.629,-249.429 242.656,-257.406 253.082,-255.518 249.629,-249.429"/>
</g>
<!-- Node6 -->
<g id="node6" class="node"><title>Node6</title>
<g id="a_node6"><a xlink:href="class_media_info.html" target="_top" xlink:title="The MediaInfo class is supposed to be able to display information about the current media that is bee...">
<polygon fill="white" stroke="black" points="149,-124.5 149,-143.5 208,-143.5 208,-124.5 149,-124.5"/>
<text text-anchor="middle" x="178.5" y="-131.5" font-family="Helvetica,sans-Serif" font-size="10.00">MediaInfo</text>
</a>
</g>
</g>
<!-- Node6&#45;&gt;Node2 -->
<g id="edge5" class="edge"><title>Node6&#45;&gt;Node2</title>
<path fill="none" stroke="#9a32cd" stroke-dasharray="5,2" d="M179.035,-113.949C179.843,-107.631 181.442,-100.749 184.5,-95 188.377,-87.712 194.991,-81.3239 200.925,-76.5934"/>
<polygon fill="#9a32cd" stroke="#9a32cd" points="175.514,-114.122 178.292,-124.346 182.496,-114.621 175.514,-114.122"/>
<text text-anchor="middle" x="209" y="-98" font-family="Helvetica,sans-Serif" font-size="10.00"> widgetInfo</text>
</g>
<!-- Node7&#45;&gt;Node6 -->
<g id="edge6" class="edge"><title>Node7&#45;&gt;Node6</title>
<path fill="none" stroke="midnightblue" d="M177.756,-190.072C177.957,-175.18 178.228,-155.111 178.382,-143.768"/>
<polygon fill="midnightblue" stroke="midnightblue" points="174.254,-190.174 177.619,-200.221 181.254,-190.269 174.254,-190.174"/>
</g>
<!-- Node8&#45;&gt;Node2 -->
<g id="edge8" class="edge"><title>Node8&#45;&gt;Node2</title>
<path fill="none" stroke="#9a32cd" stroke-dasharray="5,2" d="M248.493,-152.083C246.3,-136.267 241.914,-113.404 233.5,-95 230.492,-88.4214 225.706,-81.8811 221.57,-76.8855"/>
<polygon fill="#9a32cd" stroke="#9a32cd" points="245.04,-152.689 249.727,-162.191 251.989,-151.84 245.04,-152.689"/>
<text text-anchor="middle" x="262.5" y="-131.5" font-family="Helvetica,sans-Serif" font-size="10.00"> library</text>
</g>
<!-- Node9 -->
<g id="node9" class="node"><title>Node9</title>
<g id="a_node9"><a xlink:href="class_controls.html" target="_top" xlink:title="The Controls class provides support to user control. ">
<polygon fill="white" stroke="black" points="297,-124.5 297,-143.5 350,-143.5 350,-124.5 297,-124.5"/>
<text text-anchor="middle" x="323.5" y="-131.5" font-family="Helvetica,sans-Serif" font-size="10.00">Controls</text>
</a>
</g>
</g>
<!-- Node9&#45;&gt;Node2 -->
<g id="edge10" class="edge"><title>Node9&#45;&gt;Node2</title>
<path fill="none" stroke="#9a32cd" stroke-dasharray="5,2" d="M301.098,-118.991C289.367,-111.726 274.728,-102.77 261.5,-95 250.783,-88.7044 238.572,-81.8402 229.149,-76.6083"/>
<polygon fill="#9a32cd" stroke="#9a32cd" points="299.459,-122.093 309.799,-124.399 303.154,-116.148 299.459,-122.093"/>
<text text-anchor="middle" x="296" y="-98" font-family="Helvetica,sans-Serif" font-size="10.00"> control</text>
</g>
<!-- Node10&#45;&gt;Node9 -->
<g id="edge11" class="edge"><title>Node10&#45;&gt;Node9</title>
<path fill="none" stroke="midnightblue" d="M324.244,-190.072C324.043,-175.18 323.772,-155.111 323.618,-143.768"/>
<polygon fill="midnightblue" stroke="midnightblue" points="320.746,-190.269 324.381,-200.221 327.746,-190.174 320.746,-190.269"/>
</g>
</g>
</svg>
