<?xml version="1.0" encoding="UTF-8" standalone="no"?>
<!DOCTYPE svg PUBLIC "-//W3C//DTD SVG 1.1//EN"
 "http://www.w3.org/Graphics/SVG/1.1/DTD/svg11.dtd">
<!-- Generated by graphviz version 2.38.0 (20140413.2041)
 -->
<!-- Title: Ui_MainWindow Pages: 1 -->
<svg width="375pt" height="228pt"
 viewBox="0.00 0.00 375.00 228.00" xmlns="http://www.w3.org/2000/svg" xmlns:xlink="http://www.w3.org/1999/xlink">
<g id="graph0" class="graph" transform="scale(1 1) rotate(0) translate(4 224)">
<title>Ui_MainWindow</title>
<polygon fill="white" stroke="none" points="-4,4 -4,-224 371,-224 371,4 -4,4"/>
<!-- Node1 -->
<g id="node1" class="node"><title>Node1</title>
<polygon fill="#bfbfbf" stroke="black" points="169.5,-0.5 169.5,-19.5 257.5,-19.5 257.5,-0.5 169.5,-0.5"/>
<text text-anchor="middle" x="213.5" y="-7.5" font-family="Helvetica,sans-Serif" font-size="10.00">Ui_MainWindow</text>
</g>
<!-- Node2 -->
<g id="node2" class="node"><title>Node2</title>
<g id="a_node2"><a xlink:href="class_spectrograph.html" target="_top" xlink:title="The Spectrograph class is used to draw the fourier spectrum on the screen. ">
<polygon fill="white" stroke="black" points="39.5,-67.5 39.5,-86.5 113.5,-86.5 113.5,-67.5 39.5,-67.5"/>
<text text-anchor="middle" x="76.5" y="-74.5" font-family="Helvetica,sans-Serif" font-size="10.00">Spectrograph</text>
</a>
</g>
</g>
<!-- Node2&#45;&gt;Node1 -->
<g id="edge1" class="edge"><title>Node2&#45;&gt;Node1</title>
<path fill="none" stroke="#9a32cd" stroke-dasharray="5,2" d="M95.1409,-61.4435C105.673,-53.719 119.333,-44.5066 132.5,-38 147.915,-30.3822 165.992,-24.1243 181.152,-19.558"/>
<polygon fill="#9a32cd" stroke="#9a32cd" points="92.993,-58.6795 87.1088,-67.4901 97.2031,-64.272 92.993,-58.6795"/>
<text text-anchor="middle" x="155" y="-41" font-family="Helvetica,sans-Serif" font-size="10.00"> visualizer</text>
</g>
<!-- Node3 -->
<g id="node3" class="node"><title>Node3</title>
<g id="a_node3"><a xlink:href="class_abstract_spectrograph.html" target="_top" xlink:title="The AbstractSpectrograph class provides a generic interface for a spectrograph drawing widget...">
<polygon fill="white" stroke="black" points="0,-143.5 0,-162.5 111,-162.5 111,-143.5 0,-143.5"/>
<text text-anchor="middle" x="55.5" y="-150.5" font-family="Helvetica,sans-Serif" font-size="10.00">AbstractSpectrograph</text>
</a>
</g>
</g>
<!-- Node3&#45;&gt;Node2 -->
<g id="edge2" class="edge"><title>Node3&#45;&gt;Node2</title>
<path fill="none" stroke="midnightblue" d="M60.7475,-133.509C64.9856,-118.575 70.7612,-98.2223 74.0118,-86.7679"/>
<polygon fill="midnightblue" stroke="midnightblue" points="57.3545,-132.645 57.9914,-143.221 64.0886,-134.556 57.3545,-132.645"/>
</g>
<!-- Node4 -->
<g id="node4" class="node"><title>Node4</title>
<polygon fill="white" stroke="#bfbfbf" points="200,-200.5 200,-219.5 255,-219.5 255,-200.5 200,-200.5"/>
<text text-anchor="middle" x="227.5" y="-207.5" font-family="Helvetica,sans-Serif" font-size="10.00">QWidget</text>
</g>
<!-- Node4&#45;&gt;Node3 -->
<g id="edge3" class="edge"><title>Node4&#45;&gt;Node3</title>
<path fill="none" stroke="midnightblue" d="M191.003,-197.33C158.397,-186.903 111.394,-171.873 82.1863,-162.533"/>
<polygon fill="midnightblue" stroke="midnightblue" points="190.034,-200.694 200.625,-200.406 192.166,-194.027 190.034,-200.694"/>
</g>
<!-- Node6 -->
<g id="node6" class="node"><title>Node6</title>
<g id="a_node6"><a xlink:href="class_abstract_media_info.html" target="_top" xlink:title="AbstractMediaInfo">
<polygon fill="white" stroke="black" points="129.5,-143.5 129.5,-162.5 225.5,-162.5 225.5,-143.5 129.5,-143.5"/>
<text text-anchor="middle" x="177.5" y="-150.5" font-family="Helvetica,sans-Serif" font-size="10.00">AbstractMediaInfo</text>
</a>
</g>
</g>
<!-- Node4&#45;&gt;Node6 -->
<g id="edge6" class="edge"><title>Node4&#45;&gt;Node6</title>
<path fill="none" stroke="midnightblue" d="M212.798,-192.828C203.845,-182.979 192.756,-170.782 185.423,-162.715"/>
<polygon fill="midnightblue" stroke="midnightblue" points="210.371,-195.361 219.688,-200.406 215.551,-190.652 210.371,-195.361"/>
</g>
<!-- Node7 -->
<g id="node7" class="node"><title>Node7</title>
<g id="a_node7"><a xlink:href="class_media_library.html" target="_top" xlink:title="MediaLibrary">
<polygon fill="white" stroke="black" points="214.5,-105.5 214.5,-124.5 286.5,-124.5 286.5,-105.5 214.5,-105.5"/>
<text text-anchor="middle" x="250.5" y="-112.5" font-family="Helvetica,sans-Serif" font-size="10.00">MediaLibrary</text>
</a>
</g>
</g>
<!-- Node4&#45;&gt;Node7 -->
<g id="edge8" class="edge"><title>Node4&#45;&gt;Node7</title>
<path fill="none" stroke="midnightblue" d="M232.045,-190.622C236.992,-170.618 244.689,-139.495 248.383,-124.562"/>
<polygon fill="midnightblue" stroke="midnightblue" points="228.626,-189.87 229.623,-200.417 235.421,-191.55 228.626,-189.87"/>
</g>
<!-- Node9 -->
<g id="node9" class="node"><title>Node9</title>
<g id="a_node9"><a xlink:href="class_abstract_control.html" target="_top" xlink:title="AbstractControl">
<polygon fill="white" stroke="black" points="282,-143.5 282,-162.5 367,-162.5 367,-143.5 282,-143.5"/>
<text text-anchor="middle" x="324.5" y="-150.5" font-family="Helvetica,sans-Serif" font-size="10.00">AbstractControl</text>
</a>
</g>
</g>
<!-- Node4&#45;&gt;Node9 -->
<g id="edge11" class="edge"><title>Node4&#45;&gt;Node9</title>
<path fill="none" stroke="midnightblue" d="M251.496,-195.394C269.634,-185.11 293.973,-171.309 309.45,-162.533"/>
<polygon fill="midnightblue" stroke="midnightblue" points="249.629,-192.429 242.656,-200.406 253.082,-198.518 249.629,-192.429"/>
</g>
<!-- Node5 -->
<g id="node5" class="node"><title>Node5</title>
<g id="a_node5"><a xlink:href="class_media_info.html" target="_top" xlink:title="The MediaInfo class is supposed to be able to display information about the current media that is bee...">
<polygon fill="white" stroke="black" points="149,-67.5 149,-86.5 208,-86.5 208,-67.5 149,-67.5"/>
<text text-anchor="middle" x="178.5" y="-74.5" font-family="Helvetica,sans-Serif" font-size="10.00">MediaInfo</text>
</a>
</g>
</g>
<!-- Node5&#45;&gt;Node1 -->
<g id="edge4" class="edge"><title>Node5&#45;&gt;Node1</title>
<path fill="none" stroke="#9a32cd" stroke-dasharray="5,2" d="M179.035,-56.9492C179.843,-50.6312 181.442,-43.7493 184.5,-38 188.377,-30.712 194.991,-24.3239 200.925,-19.5934"/>
<polygon fill="#9a32cd" stroke="#9a32cd" points="175.514,-57.1216 178.292,-67.3458 182.496,-57.621 175.514,-57.1216"/>
<text text-anchor="middle" x="209" y="-41" font-family="Helvetica,sans-Serif" font-size="10.00"> widgetInfo</text>
</g>
<!-- Node6&#45;&gt;Node5 -->
<g id="edge5" class="edge"><title>Node6&#45;&gt;Node5</title>
<path fill="none" stroke="midnightblue" d="M177.756,-133.072C177.957,-118.18 178.228,-98.1111 178.382,-86.7679"/>
<polygon fill="midnightblue" stroke="midnightblue" points="174.254,-133.174 177.619,-143.221 181.254,-133.269 174.254,-133.174"/>
</g>
<!-- Node7&#45;&gt;Node1 -->
<g id="edge7" class="edge"><title>Node7&#45;&gt;Node1</title>
<path fill="none" stroke="#9a32cd" stroke-dasharray="5,2" d="M248.493,-95.0833C246.3,-79.2667 241.914,-56.4043 233.5,-38 230.492,-31.4214 225.706,-24.8811 221.57,-19.8855"/>
<polygon fill="#9a32cd" stroke="#9a32cd" points="245.04,-95.6888 249.727,-105.191 251.989,-94.8399 245.04,-95.6888"/>
<text text-anchor="middle" x="262.5" y="-74.5" font-family="Helvetica,sans-Serif" font-size="10.00"> library</text>
</g>
<!-- Node8 -->
<g id="node8" class="node"><title>Node8</title>
<g id="a_node8"><a xlink:href="class_controls.html" target="_top" xlink:title="The Controls class provides support to user control. ">
<polygon fill="white" stroke="black" points="297,-67.5 297,-86.5 350,-86.5 350,-67.5 297,-67.5"/>
<text text-anchor="middle" x="323.5" y="-74.5" font-family="Helvetica,sans-Serif" font-size="10.00">Controls</text>
</a>
</g>
</g>
<!-- Node8&#45;&gt;Node1 -->
<g id="edge9" class="edge"><title>Node8&#45;&gt;Node1</title>
<path fill="none" stroke="#9a32cd" stroke-dasharray="5,2" d="M301.098,-61.9905C289.367,-54.7257 274.728,-45.7703 261.5,-38 250.783,-31.7044 238.572,-24.8402 229.149,-19.6083"/>
<polygon fill="#9a32cd" stroke="#9a32cd" points="299.459,-65.0927 309.799,-67.3994 303.154,-59.1476 299.459,-65.0927"/>
<text text-anchor="middle" x="296" y="-41" font-family="Helvetica,sans-Serif" font-size="10.00"> control</text>
</g>
<!-- Node9&#45;&gt;Node8 -->
<g id="edge10" class="edge"><title>Node9&#45;&gt;Node8</title>
<path fill="none" stroke="midnightblue" d="M324.244,-133.072C324.043,-118.18 323.772,-98.1111 323.618,-86.7679"/>
<polygon fill="midnightblue" stroke="midnightblue" points="320.746,-133.269 324.381,-143.221 327.746,-133.174 320.746,-133.269"/>
</g>
</g>
</svg>
