<?xml version="1.0" encoding="UTF-8" standalone="no"?>
<!DOCTYPE svg PUBLIC "-//W3C//DTD SVG 1.1//EN"
 "http://www.w3.org/Graphics/SVG/1.1/DTD/svg11.dtd">
<!-- Generated by graphviz version 2.38.0 (20140413.2041)
 -->
<!-- Title: Gráfico de Hierarquia de Classes Pages: 1 -->
<svg width="202pt" height="66pt"
 viewBox="0.00 0.00 202.00 66.00" xmlns="http://www.w3.org/2000/svg" xmlns:xlink="http://www.w3.org/1999/xlink">
<g id="graph0" class="graph" transform="scale(1 1) rotate(0) translate(4 62)">
<title>Gráfico de Hierarquia de Classes</title>
<polygon fill="white" stroke="none" points="-4,4 -4,-62 198,-62 198,4 -4,4"/>
<!-- Node1 -->
<g id="node1" class="node"><title>Node1</title>
<polygon fill="white" stroke="#bfbfbf" points="0,-19.5 0,-38.5 80,-38.5 80,-19.5 0,-19.5"/>
<text text-anchor="middle" x="40" y="-26.5" font-family="Helvetica,sans-Serif" font-size="10.00">QMainWindow</text>
</g>
<!-- Node2 -->
<g id="node2" class="node"><title>Node2</title>
<g id="a_node2"><a xlink:href="class_main_window.html" target="_top" xlink:title="The MainWindow class is the conductor of this player. ">
<polygon fill="white" stroke="black" points="118.5,-38.5 118.5,-57.5 191.5,-57.5 191.5,-38.5 118.5,-38.5"/>
<text text-anchor="middle" x="155" y="-45.5" font-family="Helvetica,sans-Serif" font-size="10.00">MainWindow</text>
</a>
</g>
</g>
<!-- Node1&#45;&gt;Node2 -->
<g id="edge1" class="edge"><title>Node1&#45;&gt;Node2</title>
<path fill="none" stroke="midnightblue" d="M90.2676,-37.2839C99.6864,-38.8676 109.378,-40.4972 118.272,-41.9926"/>
<polygon fill="midnightblue" stroke="midnightblue" points="90.6467,-33.7986 80.2048,-35.592 89.486,-40.7017 90.6467,-33.7986"/>
</g>
<!-- Node3 -->
<g id="node3" class="node"><title>Node3</title>
<g id="a_node3"><a xlink:href="class_main_window1.html" target="_top" xlink:title="MainWindow1">
<polygon fill="white" stroke="black" points="116,-0.5 116,-19.5 194,-19.5 194,-0.5 116,-0.5"/>
<text text-anchor="middle" x="155" y="-7.5" font-family="Helvetica,sans-Serif" font-size="10.00">MainWindow1</text>
</a>
</g>
</g>
<!-- Node1&#45;&gt;Node3 -->
<g id="edge2" class="edge"><title>Node1&#45;&gt;Node3</title>
<path fill="none" stroke="midnightblue" d="M90.0879,-20.7463C98.6378,-19.3087 107.418,-17.8323 115.628,-16.452"/>
<polygon fill="midnightblue" stroke="midnightblue" points="89.486,-17.2983 80.2048,-22.408 90.6467,-24.2014 89.486,-17.2983"/>
</g>
</g>
</svg>
