<?xml version="1.0" encoding="UTF-8" standalone="no"?>
<!DOCTYPE svg PUBLIC "-//W3C//DTD SVG 1.1//EN"
 "http://www.w3.org/Graphics/SVG/1.1/DTD/svg11.dtd">
<!-- Generated by graphviz version 2.38.0 (20140413.2041)
 -->
<!-- Title: Gráfico de Hierarquia de Classes Pages: 1 -->
<svg width="184pt" height="66pt"
 viewBox="0.00 0.00 184.00 66.00" xmlns="http://www.w3.org/2000/svg" xmlns:xlink="http://www.w3.org/1999/xlink">
<g id="graph0" class="graph" transform="scale(1 1) rotate(0) translate(4 62)">
<title>Gráfico de Hierarquia de Classes</title>
<polygon fill="white" stroke="none" points="-4,4 -4,-62 180,-62 180,4 -4,4"/>
<!-- Node1 -->
<g id="node1" class="node"><title>Node1</title>
<polygon fill="white" stroke="#bfbfbf" points="0,-19.5 0,-38.5 53,-38.5 53,-19.5 0,-19.5"/>
<text text-anchor="middle" x="26.5" y="-26.5" font-family="Helvetica,sans-Serif" font-size="10.00">QObject</text>
</g>
<!-- Node2 -->
<g id="node2" class="node"><title>Node2</title>
<g id="a_node2"><a xlink:href="class_buffer_processor.html" target="_top" xlink:title="The BufferProcessor class is designed to process audio buffers sent by mainwindow. ">
<polygon fill="white" stroke="black" points="89,-38.5 89,-57.5 176,-57.5 176,-38.5 89,-38.5"/>
<text text-anchor="middle" x="132.5" y="-45.5" font-family="Helvetica,sans-Serif" font-size="10.00">BufferProcessor</text>
</a>
</g>
</g>
<!-- Node1&#45;&gt;Node2 -->
<g id="edge1" class="edge"><title>Node1&#45;&gt;Node2</title>
<path fill="none" stroke="midnightblue" d="M63.2067,-35.5233C71.4104,-37.0221 80.2159,-38.6308 88.6856,-40.1781"/>
<polygon fill="midnightblue" stroke="midnightblue" points="63.6741,-32.0509 53.2079,-33.6966 62.416,-38.9369 63.6741,-32.0509"/>
</g>
<!-- Node3 -->
<g id="node3" class="node"><title>Node3</title>
<g id="a_node3"><a xlink:href="class_f_f_t_calc.html" target="_top" xlink:title="FFTCalc">
<polygon fill="white" stroke="black" points="105,-0.5 105,-19.5 160,-19.5 160,-0.5 105,-0.5"/>
<text text-anchor="middle" x="132.5" y="-7.5" font-family="Helvetica,sans-Serif" font-size="10.00">FFTCalc</text>
</a>
</g>
</g>
<!-- Node1&#45;&gt;Node3 -->
<g id="edge2" class="edge"><title>Node1&#45;&gt;Node3</title>
<path fill="none" stroke="midnightblue" d="M63.2006,-22.4778C76.7807,-19.9968 92.0108,-17.2144 104.637,-14.9076"/>
<polygon fill="midnightblue" stroke="midnightblue" points="62.416,-19.0631 53.2079,-24.3034 63.6741,-25.9491 62.416,-19.0631"/>
</g>
</g>
</svg>
