<?xml version="1.0" encoding="UTF-8" standalone="no"?>
<!DOCTYPE svg PUBLIC "-//W3C//DTD SVG 1.1//EN"
 "http://www.w3.org/Graphics/SVG/1.1/DTD/svg11.dtd">
<!-- Generated by graphviz version 2.38.0 (20140413.2041)
 -->
<!-- Title: Gráfico de Hierarquia de Classes Pages: 1 -->
<svg width="320pt" height="218pt"
 viewBox="0.00 0.00 320.00 218.00" xmlns="http://www.w3.org/2000/svg" xmlns:xlink="http://www.w3.org/1999/xlink">
<g id="graph0" class="graph" transform="scale(1 1) rotate(0) translate(4 214)">
<title>Gráfico de Hierarquia de Classes</title>
<polygon fill="white" stroke="none" points="-4,4 -4,-214 316,-214 316,4 -4,4"/>
<!-- Node1 -->
<g id="node1" class="node"><title>Node1</title>
<polygon fill="white" stroke="#bfbfbf" points="0,-95.5 0,-114.5 55,-114.5 55,-95.5 0,-95.5"/>
<text text-anchor="middle" x="27.5" y="-102.5" font-family="Helvetica,sans-Serif" font-size="10.00">QWidget</text>
</g>
<!-- Node2 -->
<g id="node2" class="node"><title>Node2</title>
<g id="a_node2"><a xlink:href="class_abstract_control.html" target="_top" xlink:title="AbstractControl">
<polygon fill="white" stroke="black" points="104,-190.5 104,-209.5 189,-209.5 189,-190.5 104,-190.5"/>
<text text-anchor="middle" x="146.5" y="-197.5" font-family="Helvetica,sans-Serif" font-size="10.00">AbstractControl</text>
</a>
</g>
</g>
<!-- Node1&#45;&gt;Node2 -->
<g id="edge1" class="edge"><title>Node1&#45;&gt;Node2</title>
<path fill="none" stroke="midnightblue" d="M39.2777,-123.168C50.2941,-140.299 68.892,-165.581 91,-181 96.4244,-184.783 102.674,-187.879 108.964,-190.389"/>
<polygon fill="midnightblue" stroke="midnightblue" points="42.2101,-121.256 33.9632,-114.605 36.2623,-124.947 42.2101,-121.256"/>
</g>
<!-- Node4 -->
<g id="node4" class="node"><title>Node4</title>
<g id="a_node4"><a xlink:href="class_abstract_media_info.html" target="_top" xlink:title="AbstractMediaInfo">
<polygon fill="white" stroke="black" points="98.5,-152.5 98.5,-171.5 194.5,-171.5 194.5,-152.5 98.5,-152.5"/>
<text text-anchor="middle" x="146.5" y="-159.5" font-family="Helvetica,sans-Serif" font-size="10.00">AbstractMediaInfo</text>
</a>
</g>
</g>
<!-- Node1&#45;&gt;Node4 -->
<g id="edge3" class="edge"><title>Node1&#45;&gt;Node4</title>
<path fill="none" stroke="midnightblue" d="M51.0255,-120.285C62.6394,-127.75 77.2256,-136.501 91,-143 98.431,-146.506 106.693,-149.716 114.492,-152.459"/>
<polygon fill="midnightblue" stroke="midnightblue" points="52.7022,-117.199 42.4209,-114.641 48.8628,-123.052 52.7022,-117.199"/>
</g>
<!-- Node6 -->
<g id="node6" class="node"><title>Node6</title>
<g id="a_node6"><a xlink:href="class_abstract_spectrograph.html" target="_top" xlink:title="The AbstractSpectrograph class provides a generic interface for a spectrograph drawing widget...">
<polygon fill="white" stroke="black" points="91,-114.5 91,-133.5 202,-133.5 202,-114.5 91,-114.5"/>
<text text-anchor="middle" x="146.5" y="-121.5" font-family="Helvetica,sans-Serif" font-size="10.00">AbstractSpectrograph</text>
</a>
</g>
</g>
<!-- Node1&#45;&gt;Node6 -->
<g id="edge5" class="edge"><title>Node1&#45;&gt;Node6</title>
<path fill="none" stroke="midnightblue" d="M65.0163,-110.93C73.2168,-112.262 82.0917,-113.703 90.851,-115.125"/>
<polygon fill="midnightblue" stroke="midnightblue" points="65.4809,-107.46 55.0491,-109.311 64.3588,-114.369 65.4809,-107.46"/>
</g>
<!-- Node8 -->
<g id="node8" class="node"><title>Node8</title>
<g id="a_node8"><a xlink:href="class_light_cycle.html" target="_top" xlink:title="LightCycle">
<polygon fill="white" stroke="black" points="115,-76.5 115,-95.5 178,-95.5 178,-76.5 115,-76.5"/>
<text text-anchor="middle" x="146.5" y="-83.5" font-family="Helvetica,sans-Serif" font-size="10.00">LightCycle</text>
</a>
</g>
</g>
<!-- Node1&#45;&gt;Node8 -->
<g id="edge7" class="edge"><title>Node1&#45;&gt;Node8</title>
<path fill="none" stroke="midnightblue" d="M65.1339,-99.0509C81.1323,-96.4529 99.6792,-93.441 114.922,-90.9657"/>
<polygon fill="midnightblue" stroke="midnightblue" points="64.3588,-95.6308 55.0491,-100.689 65.4809,-102.54 64.3588,-95.6308"/>
</g>
<!-- Node9 -->
<g id="node9" class="node"><title>Node9</title>
<g id="a_node9"><a xlink:href="class_media_library.html" target="_top" xlink:title="MediaLibrary">
<polygon fill="white" stroke="black" points="110.5,-38.5 110.5,-57.5 182.5,-57.5 182.5,-38.5 110.5,-38.5"/>
<text text-anchor="middle" x="146.5" y="-45.5" font-family="Helvetica,sans-Serif" font-size="10.00">MediaLibrary</text>
</a>
</g>
</g>
<!-- Node1&#45;&gt;Node9 -->
<g id="edge8" class="edge"><title>Node1&#45;&gt;Node9</title>
<path fill="none" stroke="midnightblue" d="M51.0255,-89.7151C62.6394,-82.2496 77.2256,-73.4993 91,-67 98.431,-63.4938 106.693,-60.2843 114.492,-57.5413"/>
<polygon fill="midnightblue" stroke="midnightblue" points="48.8628,-86.9478 42.4209,-95.3593 52.7022,-92.801 48.8628,-86.9478"/>
</g>
<!-- Node10 -->
<g id="node10" class="node"><title>Node10</title>
<g id="a_node10"><a xlink:href="class_playlist.html" target="_top" xlink:title="Playlist">
<polygon fill="white" stroke="black" points="122,-0.5 122,-19.5 171,-19.5 171,-0.5 122,-0.5"/>
<text text-anchor="middle" x="146.5" y="-7.5" font-family="Helvetica,sans-Serif" font-size="10.00">Playlist</text>
</a>
</g>
</g>
<!-- Node1&#45;&gt;Node10 -->
<g id="edge9" class="edge"><title>Node1&#45;&gt;Node10</title>
<path fill="none" stroke="midnightblue" d="M39.2777,-86.8317C50.2941,-69.7014 68.892,-44.419 91,-29 100.205,-22.58 111.787,-18.1408 121.905,-15.178"/>
<polygon fill="midnightblue" stroke="midnightblue" points="36.2623,-85.0531 33.9632,-95.3955 42.2101,-88.7441 36.2623,-85.0531"/>
</g>
<!-- Node3 -->
<g id="node3" class="node"><title>Node3</title>
<g id="a_node3"><a xlink:href="class_controls.html" target="_top" xlink:title="The Controls class provides support to user control. ">
<polygon fill="white" stroke="black" points="248.5,-190.5 248.5,-209.5 301.5,-209.5 301.5,-190.5 248.5,-190.5"/>
<text text-anchor="middle" x="275" y="-197.5" font-family="Helvetica,sans-Serif" font-size="10.00">Controls</text>
</a>
</g>
</g>
<!-- Node2&#45;&gt;Node3 -->
<g id="edge2" class="edge"><title>Node2&#45;&gt;Node3</title>
<path fill="none" stroke="midnightblue" d="M199.519,-200C216.272,-200 234.111,-200 248.13,-200"/>
<polygon fill="midnightblue" stroke="midnightblue" points="199.271,-196.5 189.271,-200 199.271,-203.5 199.271,-196.5"/>
</g>
<!-- Node5 -->
<g id="node5" class="node"><title>Node5</title>
<g id="a_node5"><a xlink:href="class_media_info.html" target="_top" xlink:title="The MediaInfo class is supposed to be able to display information about the current media that is bee...">
<polygon fill="white" stroke="black" points="245.5,-152.5 245.5,-171.5 304.5,-171.5 304.5,-152.5 245.5,-152.5"/>
<text text-anchor="middle" x="275" y="-159.5" font-family="Helvetica,sans-Serif" font-size="10.00">MediaInfo</text>
</a>
</g>
</g>
<!-- Node4&#45;&gt;Node5 -->
<g id="edge4" class="edge"><title>Node4&#45;&gt;Node5</title>
<path fill="none" stroke="midnightblue" d="M204.715,-162C218.754,-162 233.192,-162 245.231,-162"/>
<polygon fill="midnightblue" stroke="midnightblue" points="204.604,-158.5 194.604,-162 204.604,-165.5 204.604,-158.5"/>
</g>
<!-- Node7 -->
<g id="node7" class="node"><title>Node7</title>
<g id="a_node7"><a xlink:href="class_spectrograph.html" target="_top" xlink:title="The Spectrograph class is used to draw the fourier spectrum on the screen. ">
<polygon fill="white" stroke="black" points="238,-114.5 238,-133.5 312,-133.5 312,-114.5 238,-114.5"/>
<text text-anchor="middle" x="275" y="-121.5" font-family="Helvetica,sans-Serif" font-size="10.00">Spectrograph</text>
</a>
</g>
</g>
<!-- Node6&#45;&gt;Node7 -->
<g id="edge6" class="edge"><title>Node6&#45;&gt;Node7</title>
<path fill="none" stroke="midnightblue" d="M212.45,-124C221.156,-124 229.819,-124 237.779,-124"/>
<polygon fill="midnightblue" stroke="midnightblue" points="212.249,-120.5 202.249,-124 212.249,-127.5 212.249,-120.5"/>
</g>
</g>
</svg>
